<?xml version="1.0" encoding="UTF-8" standalone="no"?>
<!-- Created with Inkscape (http://www.inkscape.org/) -->
<svg
   xmlns:dc="http://purl.org/dc/elements/1.1/"
   xmlns:cc="http://creativecommons.org/ns#"
   xmlns:rdf="http://www.w3.org/1999/02/22-rdf-syntax-ns#"
   xmlns:svg="http://www.w3.org/2000/svg"
   xmlns="http://www.w3.org/2000/svg"
   xmlns:xlink="http://www.w3.org/1999/xlink"
   xmlns:sodipodi="http://sodipodi.sourceforge.net/DTD/sodipodi-0.dtd"
   xmlns:inkscape="http://www.inkscape.org/namespaces/inkscape"
   width="744.09448819"
   height="1052.3622047"
   id="svg4895"
   sodipodi:version="0.32"
   sodipodi:docname="meterball2.svg"
   inkscape:output_extension="org.inkscape.output.svg.inkscape">
  <defs
     id="defs4897">
    <linearGradient
       inkscape:collect="always"
       xlink:href="#linearGradient4883"
       id="linearGradient3354"
       gradientUnits="userSpaceOnUse"
       gradientTransform="matrix(1,0,0,-1,2.857144,-8.205353)"
       x1="10.563844"
       y1="-89.422569"
       x2="-11.054111"
       y2="117.35065" />
  </defs>
  <g
     inkscape:label="Layer 1"
     inkscape:groupmode="layer"
     id="layer1">
    <path
       style="opacity:1;fill:#ffffff;fill-opacity:0;fill-rule:nonzero;stroke:url(#linearGradient3354);stroke-width:10;stroke-linecap:butt;stroke-linejoin:round;marker:none;marker-start:none;marker-mid:none;marker-end:none;stroke-miterlimit:4;stroke-dasharray:none;stroke-dashoffset:0;stroke-opacity:1;visibility:visible;display:inline;overflow:visible"
       d="M 4.28125,44.5 L 4.28125,44.09375 C 2.4019989,44.303684 0.49990423,44.4375 -1.4375,44.4375 C -28.643214,44.4375 -50.71875,23.1575 -50.71875,-3.0625 C -50.71875,-29.2825 -28.643214,-50.562501 -1.4375,-50.5625 C 0.49990423,-50.5625 2.4019989,-50.428684 4.28125,-50.21875 L 4.28125,-50.34375 L 112.15625,-50.34375 L 112.15625,44.5 L 4.28125,44.5 z"
       id="path1966" />
    <path
       style="fill:#ffffff;fill-opacity:1"
       d="M -9.9576493,38.399018 C -24.975163,35.684788 -38.500254,24.228816 -43.254205,10.196286 C -44.812184,5.597518 -45.308863,2.4088848 -45.316339,-3.0422654 C -45.331153,-13.853529 -41.715153,-23.064957 -34.367933,-30.932289 C -28.623284,-37.083609 -22.023888,-41.15017 -13.57541,-43.744683 L -9.6038446,-44.964346 L 48.756105,-45.085603 L 107.11605,-45.206872 L 107.11605,-3.0532005 L 107.11605,39.100458 L 50.300603,39.060866 C 3.460638,39.028211 -7.1193258,38.912007 -9.9576405,38.399018 L -9.9576493,38.399018 z"
       id="path3475" />
  </g>
</svg>
