<?xml version="1.0" encoding="UTF-8" standalone="no"?>
<!-- Created with Inkscape (http://www.inkscape.org/) -->
<svg
   xmlns:dc="http://purl.org/dc/elements/1.1/"
   xmlns:cc="http://creativecommons.org/ns#"
   xmlns:rdf="http://www.w3.org/1999/02/22-rdf-syntax-ns#"
   xmlns:svg="http://www.w3.org/2000/svg"
   xmlns="http://www.w3.org/2000/svg"
   xmlns:xlink="http://www.w3.org/1999/xlink"
   xmlns:sodipodi="http://sodipodi.sourceforge.net/DTD/sodipodi-0.dtd"
   xmlns:inkscape="http://www.inkscape.org/namespaces/inkscape"
   width="744.09448819"
   height="1052.3622047"
   id="svg3249"
   sodipodi:version="0.32"
   inkscape:version="0.46"
   sodipodi:docbase="D:\FretsonFire\FretsOnFire-svn\trunk\data"
   sodipodi:docname="stage_bassdrum.svg"
   inkscape:output_extension="org.inkscape.output.svg.inkscape">
  <defs
     id="defs3251">
    <inkscape:perspective
       sodipodi:type="inkscape:persp3d"
       inkscape:vp_x="0 : 526.18109 : 1"
       inkscape:vp_y="0 : 1000 : 0"
       inkscape:vp_z="744.09448 : 526.18109 : 1"
       inkscape:persp3d-origin="372.04724 : 350.78739 : 1"
       id="perspective33" />
    <linearGradient
       id="linearGradient2762">
      <stop
         id="stop2764"
         offset="0"
         style="stop-color:yellow;stop-opacity:1" />
      <stop
         id="stop2766"
         offset="1"
         style="stop-color:#f10;stop-opacity:0.14432989" />
    </linearGradient>
    <linearGradient
       id="linearGradient3026">
      <stop
         id="stop3028"
         offset="0"
         style="stop-color:black;stop-opacity:1;" />
      <stop
         style="stop-color:#650000;stop-opacity:1;"
         offset="0.21045917"
         id="stop3040" />
      <stop
         style="stop-color:white;stop-opacity:1;"
         offset="0.26785713"
         id="stop3034" />
      <stop
         id="stop3036"
         offset="0.32015306"
         style="stop-color:#862721;stop-opacity:1;" />
      <stop
         id="stop3030"
         offset="1"
         style="stop-color:black;stop-opacity:1;" />
    </linearGradient>
    <linearGradient
       id="linearGradient3189">
      <stop
         id="stop3191"
         offset="0"
         style="stop-color:#202020;stop-opacity:1;" />
      <stop
         id="stop3193"
         offset="1"
         style="stop-color:black;stop-opacity:1;" />
    </linearGradient>
    <linearGradient
       inkscape:collect="always"
       xlink:href="#linearGradient3026"
       id="linearGradient2933"
       gradientUnits="userSpaceOnUse"
       gradientTransform="matrix(0.1717678,0,0,0.165521,-515.97116,-149.11539)"
       x1="2782.0347"
       y1="690.1499"
       x2="3297.7461"
       y2="800.95081" />
    <linearGradient
       inkscape:collect="always"
       xlink:href="#linearGradient3189"
       id="linearGradient4404"
       gradientUnits="userSpaceOnUse"
       gradientTransform="matrix(0.1681894,0,0,0.1658573,-688.39124,-112.54955)"
       x1="2974.4622"
       y1="996.84381"
       x2="2981.9832"
       y2="848.20502" />
    <radialGradient
       inkscape:collect="always"
       xlink:href="#linearGradient2762"
       id="radialGradient2623"
       gradientUnits="userSpaceOnUse"
       gradientTransform="matrix(3.629584,6.557126e-3,-8.427706e-5,4.665013e-2,-1393.015,-1.045949)"
       cx="431.67523"
       cy="198.44926"
       fx="431.67523"
       fy="198.44926"
       r="340.46094" />
    <radialGradient
       inkscape:collect="always"
       xlink:href="#linearGradient2762"
       id="radialGradient2626"
       gradientUnits="userSpaceOnUse"
       gradientTransform="matrix(0.521524,0,0,0.729052,-51.3585,-97.98673)"
       cx="69.479897"
       cy="146.89619"
       fx="69.479897"
       fy="146.89619"
       r="24.515623" />
    <radialGradient
       inkscape:collect="always"
       xlink:href="#linearGradient2762"
       id="radialGradient2301"
       gradientUnits="userSpaceOnUse"
       gradientTransform="matrix(3.629584,6.557126e-3,-8.427706e-5,4.665013e-2,-1356.821,-0.253999)"
       cx="431.67523"
       cy="198.44926"
       fx="431.67523"
       fy="198.44926"
       r="340.46094" />
    <radialGradient
       inkscape:collect="always"
       xlink:href="#linearGradient2762"
       id="radialGradient2303"
       gradientUnits="userSpaceOnUse"
       gradientTransform="matrix(0.521524,0,0,0.729052,-15.16402,-97.19473)"
       cx="69.479897"
       cy="146.89619"
       fx="69.479897"
       fy="146.89619"
       r="24.515623" />
    <radialGradient
       inkscape:collect="always"
       xlink:href="#linearGradient2762"
       id="radialGradient2559"
       gradientUnits="userSpaceOnUse"
       gradientTransform="matrix(2.212091,3.996315e-3,-5.13636e-5,2.843144e-2,-943.3442,3.4634753)"
       cx="431.67523"
       cy="198.44926"
       fx="431.67523"
       fy="198.44926"
       r="340.46094" />
    <radialGradient
       inkscape:collect="always"
       xlink:href="#linearGradient2762"
       id="radialGradient2561"
       gradientUnits="userSpaceOnUse"
       gradientTransform="matrix(0.910761,0,0,1.171321,-212.5841,-196.00729)"
       cx="232.86505"
       cy="175.56206"
       fx="232.86505"
       fy="175.56206"
       r="9.3900862" />
  </defs>
  <sodipodi:namedview
     id="base"
     pagecolor="#ffffff"
     bordercolor="#666666"
     borderopacity="1.0"
     gridtolerance="10000"
     guidetolerance="10"
     objecttolerance="10"
     inkscape:pageopacity="0.0"
     inkscape:pageshadow="2"
     inkscape:zoom="5.6"
     inkscape:cx="39.408681"
     inkscape:cy="1045.939"
     inkscape:document-units="px"
     inkscape:current-layer="layer1"
     inkscape:window-width="1280"
     inkscape:window-height="878"
     inkscape:window-x="152"
     inkscape:window-y="0"
     showgrid="false" />
  <metadata
     id="metadata3254">
    <rdf:RDF>
      <cc:Work
         rdf:about="">
        <dc:format>image/svg+xml</dc:format>
        <dc:type
           rdf:resource="http://purl.org/dc/dcmitype/StillImage" />
      </cc:Work>
    </rdf:RDF>
  </metadata>
  <g
     inkscape:label="Layer 1"
     inkscape:groupmode="layer"
     id="layer1"
     style="display:inline">
    <path
       style="color:#000000;fill:url(#linearGradient2933);fill-opacity:1;fill-rule:evenodd;stroke:#000000;stroke-width:0.76364309;stroke-linecap:butt;stroke-linejoin:miter;marker:none;marker-start:none;marker-mid:none;marker-end:none;stroke-miterlimit:4;stroke-dashoffset:0;stroke-opacity:1;visibility:visible;display:inline;overflow:visible"
       d="M -44.518818,7.8829515 C -45.528968,-20.301388 -30.615398,-41.446602 -0.30490161,-40.96533 C 30.199729,-41.034038 44.784639,-23.898271 44.667779,8.0923015"
       id="path3422"
       sodipodi:nodetypes="ccc" />
    <path
       transform="matrix(0.978354,0,0,0.9769451,-0.9882868,-15.074318)"
       style="color:#000000;fill:url(#linearGradient4404);fill-opacity:1;fill-rule:nonzero;stroke:#000000;stroke-width:2.344208;stroke-linecap:butt;stroke-linejoin:miter;stroke-miterlimit:1;stroke-dashoffset:0;stroke-opacity:1;marker:none;marker-start:none;marker-mid:none;marker-end:none;visibility:visible;display:inline;overflow:visible;enable-background:accumulate"
       d="M 46.467016,25.289589 C 46.467016,48.848366 26.102341,67.968533 1.0101526,67.968533 C -24.082036,67.968533 -44.446711,48.848366 -44.446711,25.289589 C -44.446711,1.730812 -24.082036,-17.389355 1.0101526,-17.389355 C 26.013876,-17.389355 46.327849,1.5778759 46.466319,25.053234"
       id="path4402" />
    <path
       style="font-size:144px;font-style:normal;font-weight:normal;fill:url(#radialGradient2623);fill-opacity:1;stroke:url(#radialGradient2626);stroke-width:0.78228718;stroke-linecap:butt;stroke-linejoin:miter;stroke-miterlimit:4;stroke-opacity:1;font-family:Seaweed Fire AOE"
       d="M -6.3956486,1.2769117 C -6.5667986,1.5061631 -6.9212546,1.7965257 -7.4590926,2.1479841 C -7.7524136,2.1938585 -8.2169006,2.102161 -8.8525326,1.8729096 C -9.2192116,1.6589846 -9.4759426,1.0553415 -9.6225726,0.06199032 C -9.7203716,-0.68680838 -10.331555,-1.0841414 -11.456053,-1.1300154 C -11.896158,-0.99245138 -12.568396,-0.87783038 -13.472909,-0.78617138 C -14.426328,-1.0000894 -15.477545,-1.1376304 -16.626486,-1.1987844 C -17.873309,-1.2598804 -18.655571,-1.1834734 -18.973353,-0.96955638 C -19.731236,-0.43465438 -20.049013,-0.01439598 -19.926768,0.29121872 C -19.755687,0.65801642 -19.535632,0.84140112 -19.266754,0.84137292 C -19.144504,0.84140112 -19.010026,0.78026952 -18.863399,0.65798052 C -18.936673,1.0247859 -19.266754,1.6666299 -19.853412,2.5835306 C -20.366796,3.3629363 -20.574629,4.0353487 -20.47682,4.6007551 C -20.427928,4.76888 -20.244622,4.9904732 -19.926768,5.2655298 C -18.9489,5.0668801 -18.166638,4.6237038 -17.579901,3.9359854 C -17.384376,3.6303732 -17.200999,3.3629363 -17.029841,3.1336848 C -17.152099,3.4240628 -17.335476,3.6914972 -17.579901,3.9359854 C -18.973353,6.1519063 -19.645661,7.8635017 -19.596756,9.0707577 C -19.57231,9.468112 -19.156728,9.7966816 -18.350015,10.056451 C -16.712066,10.056473 -15.697528,9.8348889 -15.306394,9.3916828 C -15.159762,9.2388831 -14.658605,8.3830929 -13.80291,6.8242972 C -13.216253,5.8004183 -12.409465,5.0439621 -11.3827,4.5549115 C -11.627204,4.784168 -11.883931,5.1662126 -12.152814,5.7010629 C -12.22616,5.8386256 -12.262841,5.9761658 -12.262841,6.1136844 C -12.262841,6.3276539 -12.140588,6.6027272 -11.896079,6.9389191 C -11.602758,7.3209846 -11.431672,7.5960653 -11.3827,7.7641466 C -11.358321,8.1003676 -11.419445,9.0325725 -11.566077,10.560761 C -11.68833,11.691654 -11.590531,12.616215 -11.272748,13.334457 C -10.954966,14.113855 -11.309421,14.602883 -12.336112,14.801534 C -12.996198,14.801549 -13.509582,14.709853 -13.876264,14.526461 C -14.683056,13.594264 -15.159762,13.059399 -15.306394,12.921836 C -16.015377,12.341141 -16.834317,12.043135 -17.763283,12.027839 C -18.741143,12.165394 -19.230076,12.60857 -19.230076,13.357376 C -19.230076,13.47965 -19.217854,13.674501 -19.193403,13.941914 C -19.16895,14.209373 -19.156728,14.404217 -19.156728,14.526461 C -19.156728,14.81683 -19.20563,15.053705 -19.303427,15.237074 C -19.596756,15.771963 -19.706787,16.482576 -19.633436,17.368921 C -19.560083,17.812113 -19.327881,18.033696 -18.936673,18.033696 C -18.790048,18.033696 -18.61889,17.995498 -18.423294,17.919076 C -18.398915,18.438682 -18.521093,19.149295 -18.790048,20.050921 C -19.058923,21.013704 -19.193403,21.716672 -19.193403,22.159848 C -19.193403,22.587752 -19.12005,22.992727 -18.973353,23.374772 C -18.851175,23.695698 -18.49664,23.764467 -17.909982,23.581082 C -17.4944,23.367134 -17.231562,22.931595 -17.121531,22.274463 C -17.011584,21.617339 -16.724293,21.181808 -16.259806,20.967845 C -16.333157,21.105393 -16.369838,21.258215 -16.369838,21.426311 C -16.369838,21.716672 -16.217024,22.240085 -15.911468,22.996542 C -15.605907,23.753007 -15.453091,24.329902 -15.453091,24.727234 C -15.453091,25.246833 -15.63647,25.697647 -16.00315,26.079697 C -16.418737,26.370059 -17.017694,26.538164 -17.799956,26.584007 C -18.533318,26.614571 -19.16895,26.534341 -19.706787,26.343311 C -20.244622,26.152291 -20.977979,26.041499 -21.906945,26.010928 C -22.664756,25.980364 -23.422648,25.957446 -24.180459,25.942156 C -24.791642,25.850468 -25.402826,25.766416 -26.013935,25.690002 C -26.722917,25.552468 -27.162956,25.300314 -27.334029,24.933537 C -27.456274,24.704316 -27.517406,24.444525 -27.517406,24.154154 C -27.517406,23.848519 -27.419607,23.37478 -27.22408,22.732923 C -27.028478,22.091086 -26.930669,21.609701 -26.930669,21.288778 C -26.930669,20.906726 -27.028478,20.562882 -27.22408,20.257231 C -26.784052,20.883808 -26.307346,21.869501 -25.793954,23.214313 C -25.402826,23.550519 -25.048293,23.604008 -24.730511,23.374772 C -24.290483,22.809342 -23.966583,21.892419 -23.75876,20.623993 C -23.551008,19.355606 -23.263715,18.453955 -22.897032,17.919076 C -22.848133,17.659292 -22.823679,17.391855 -22.823679,17.116765 C -22.823679,16.33739 -23.068188,15.175963 -23.557126,13.632457 C -24.046053,12.088987 -24.290483,10.927545 -24.290483,10.14814 C -24.290483,9.3534976 -24.107103,8.6123143 -23.740421,7.9246054 C -23.887122,9.1624686 -23.557126,9.9036516 -22.750333,10.14814 L -22.346981,9.8501483 C -22.298074,7.7718057 -22.62816,6.1901136 -23.337071,5.1050656 C -23.948254,4.1575992 -24.253805,3.6456535 -24.253805,3.5692159 C -24.253805,3.1871968 -23.862676,2.9350402 -23.08042,2.8127589 C -23.007066,2.6599605 -22.970388,2.5147818 -22.970388,2.3772125 C -22.970388,2.0410345 -23.227039,1.651347 -23.740421,1.2081424 C -24.42496,0.59688472 -24.816088,0.22246992 -24.913888,0.08490832 C -25.989491,-0.75557738 -26.527319,-1.7259824 -26.527319,-2.8263224 C -26.527319,-3.2236234 -26.453963,-3.6362364 -26.307346,-4.0641684 C -26.209536,-4.3545034 -25.891753,-4.7365457 -25.353926,-5.2103284 C -24.570482,-5.7356494 -24.173901,-6.324727 -23.850452,-7.158791 C -24.224275,-5.8460964 -24.730221,-4.5753657 -23.850452,-3.3077114 C -22.994842,-2.6658324 -21.72364,-2.5206554 -20.036792,-2.8721734 C -19.181176,-3.0555224 -18.154411,-3.4604974 -16.956567,-4.0870944 C -15.367521,-4.9275757 -14.414101,-5.4089574 -14.096313,-5.5312464 C -14.976385,-5.0269077 -15.416418,-4.5608057 -15.416418,-4.1329404 C -15.416418,-4.0106514 -15.379745,-3.8960364 -15.306394,-3.7890964 C -14.646383,-3.2847574 -13.754085,-3.0326014 -12.62952,-3.0326294 C -11.993886,-3.0326014 -11.394999,-3.1242914 -10.832715,-3.3077114 C -9.6103456,-3.7050084 -8.2169006,-4.5149547 -6.6523766,-5.7375574 C -4.9410776,-7.097629 -3.6332021,-7.976344 -2.7286898,-8.373712 L -6.3956486,1.2769117 z M -6.6889776,-3.7661784 C -6.6890496,-3.9495254 -6.8601276,-4.0412144 -7.2023566,-4.0412434 C -7.5691156,-4.0412144 -7.8379936,-3.9265994 -8.0091486,-3.6973994 C -8.2535726,-3.5598294 -8.2657996,-3.3764454 -8.0458216,-3.1472454 C -7.7279676,-3.1013734 -7.4224116,-3.1433944 -7.1290826,-3.2733254 C -6.8356816,-3.4031934 -6.6890496,-3.5674754 -6.6889776,-3.7661784 L -6.6889776,-3.7661784 z M -7.8991206,-1.0612514 C -7.8991206,-1.0764954 -8.0458216,-1.1452674 -8.3391506,-1.2675544 C -8.5592086,-1.2369624 -8.6691556,-1.0612154 -8.6691556,-0.74031738 C -8.6447806,-0.63331938 -8.4614036,-0.57983038 -8.1190956,-0.57986138 C -7.9235716,-0.71737138 -7.8502206,-0.87783038 -7.8991206,-1.0612514 L -7.8991206,-1.0612514 z M -16.369838,-3.0784764 C -16.516537,-3.1548624 -16.638713,-3.1701354 -16.73652,-3.1243194 C -16.834317,-3.0631644 -16.85877,-2.9791154 -16.809866,-2.8721734 C -16.614267,-2.8874174 -16.467637,-2.9561944 -16.369838,-3.0784764 L -16.369838,-3.0784764 z M -22.897032,-1.0612514 C -23.068188,-1.2904514 -23.324839,-1.3821384 -23.667075,-1.3363264 C -23.911576,-1.2751684 -24.033832,-1.0612154 -24.033757,-0.69447438 C -23.960476,-0.57219338 -23.874898,-0.45758038 -23.777099,-0.35063038 C -23.654853,-0.19778038 -23.471548,-0.14429138 -23.227039,-0.19016638 C -23.08042,-0.25126938 -22.970388,-0.54162438 -22.897032,-1.0612514 L -22.897032,-1.0612514 z M -14.242943,12.188305 C -14.243018,12.004935 -14.450779,11.928528 -14.866361,11.959069 C -14.890812,11.974365 -14.854134,12.088987 -14.756335,12.30292 C -14.487452,12.471038 -14.316302,12.43283 -14.242943,12.188305 L -14.242943,12.188305 z M -19.633436,24.520932 C -19.682334,24.36811 -19.82904,24.253495 -20.073467,24.17708 C -20.146813,24.268778 -20.134591,24.371933 -20.036792,24.486538 C -19.93899,24.601161 -19.804587,24.612619 -19.633436,24.520932 L -19.633436,24.520932 z M -23.08042,23.97077 C -23.300393,23.833244 -23.48377,23.77975 -23.630399,23.810311 C -23.630399,23.810318 -23.764877,23.955497 -24.033757,24.245849 C -23.936022,24.429242 -23.703745,24.498006 -23.337071,24.452155 C -23.117087,24.329902 -23.03151,24.169442 -23.08042,23.97077 L -23.08042,23.97077 z "
       id="path3691" />
    <path
       style="font-size:144px;font-style:normal;font-weight:normal;fill:url(#radialGradient2301);fill-opacity:1;stroke:url(#radialGradient2303);stroke-width:0.78228718;stroke-linecap:butt;stroke-linejoin:miter;stroke-miterlimit:4;stroke-opacity:1;display:inline;font-family:Seaweed Fire AOE"
       d="M 29.798828,2.0688635 C 29.627678,2.2981145 29.273223,2.5884771 28.735385,2.9399351 C 28.442064,2.9858091 27.977577,2.8941121 27.341945,2.6648611 C 26.975265,2.4509365 26.718535,1.8472935 26.571905,0.85394192 C 26.474105,0.10514322 25.862922,-0.29218978 24.738424,-0.33806378 C 24.298319,-0.20049978 23.626081,-0.08587878 22.721568,0.0057802198 C 21.768148,-0.20813778 20.716931,-0.34567878 19.56799,-0.40683278 C 18.321167,-0.46792878 17.538905,-0.39152178 17.221123,-0.17760478 C 16.46324,0.35729722 16.145463,0.77755562 16.267708,1.0831703 C 16.438789,1.449968 16.658844,1.6333525 16.927722,1.6333245 C 17.049972,1.6333525 17.18445,1.5722215 17.331077,1.4499321 C 17.257803,1.8167375 16.927722,2.4585815 16.341064,3.3754811 C 15.82768,4.1548871 15.619847,4.8272991 15.717656,5.3927061 C 15.766548,5.5608311 15.949854,5.7824241 16.267708,6.0574811 C 17.245576,5.8588311 18.027838,5.4156541 18.614575,4.7279361 C 18.8101,4.4223241 18.993477,4.1548871 19.164635,3.9256351 C 19.042377,4.2160131 18.859,4.4834481 18.614575,4.7279361 C 17.221123,6.9438571 16.548815,8.6554521 16.59772,9.8627081 C 16.622166,10.260063 17.037748,10.588632 17.844461,10.848402 C 19.48241,10.848424 20.496948,10.62684 20.888082,10.183634 C 21.034714,10.030834 21.535871,9.1750441 22.391566,7.6162481 C 22.978224,6.5923691 23.785012,5.8359131 24.811777,5.3468621 C 24.567274,5.5761191 24.310546,5.9581631 24.041663,6.4930141 C 23.968317,6.6305761 23.931637,6.7681161 23.931637,6.9056351 C 23.931637,7.1196051 24.05389,7.3946781 24.298399,7.7308701 C 24.59172,8.1129351 24.762806,8.3880161 24.811777,8.5560971 C 24.836157,8.8923181 24.775033,9.8245231 24.6284,11.352712 C 24.506147,12.483605 24.603947,13.408165 24.921729,14.126408 C 25.239512,14.905806 24.885056,15.394834 23.858365,15.593485 C 23.198279,15.5935 22.684895,15.501804 22.318212,15.318412 C 21.51142,14.386215 21.034714,13.851349 20.888082,13.713787 C 20.179099,13.133092 19.360159,12.835085 18.431193,12.819789 C 17.453333,12.957344 16.9644,13.400521 16.9644,14.149326 C 16.9644,14.2716 16.976622,14.466452 17.001073,14.733865 C 17.025526,15.001324 17.037748,15.196168 17.037748,15.318412 C 17.037748,15.608781 16.988846,15.845655 16.891049,16.029024 C 16.59772,16.563913 16.487689,17.274526 16.56104,18.160871 C 16.634393,18.604063 16.866595,18.825646 17.257803,18.825646 C 17.404428,18.825646 17.575586,18.787448 17.771182,18.711026 C 17.795561,19.230632 17.673383,19.941245 17.404428,20.842871 C 17.135553,21.805654 17.001073,22.508622 17.001073,22.951798 C 17.001073,23.379702 17.074426,23.784677 17.221123,24.166722 C 17.343301,24.487648 17.697836,24.556417 18.284494,24.373032 C 18.700076,24.159084 18.962914,23.723545 19.072945,23.066413 C 19.182892,22.409289 19.470183,21.973758 19.93467,21.759795 C 19.861319,21.897343 19.824638,22.050165 19.824638,22.218261 C 19.824638,22.508622 19.977452,23.032035 20.283008,23.788492 C 20.588569,24.544957 20.741385,25.121852 20.741385,25.519184 C 20.741385,26.038783 20.558006,26.489597 20.191326,26.871647 C 19.775739,27.162009 19.176782,27.330114 18.39452,27.375957 C 17.661158,27.406521 17.025526,27.326291 16.487689,27.135261 C 15.949854,26.944241 15.216497,26.833449 14.287531,26.802878 C 13.52972,26.772314 12.771828,26.749396 12.014017,26.734106 C 11.402834,26.642418 10.79165,26.558366 10.180541,26.481952 C 9.4715594,26.344418 9.0315204,26.092264 8.8604474,25.725487 C 8.7382024,25.496266 8.6770704,25.236475 8.6770704,24.946104 C 8.6770704,24.640469 8.7748694,24.16673 8.9703964,23.524873 C 9.1659984,22.883036 9.2638074,22.401651 9.2638074,22.080728 C 9.2638074,21.698676 9.1659984,21.354832 8.9703964,21.049181 C 9.4104244,21.675758 9.8871304,22.661451 10.400522,24.006263 C 10.79165,24.342469 11.146183,24.395958 11.463965,24.166722 C 11.903993,23.601292 12.227893,22.684369 12.435716,21.415943 C 12.643468,20.147556 12.930761,19.245905 13.297444,18.711026 C 13.346343,18.451242 13.370797,18.183805 13.370797,17.908715 C 13.370797,17.12934 13.126288,15.967914 12.63735,14.424407 C 12.148423,12.880937 11.903993,11.719496 11.903993,10.940091 C 11.903993,10.145448 12.087373,9.4042651 12.454055,8.7165561 C 12.307354,9.9544191 12.63735,10.695602 13.444143,10.940091 L 13.847495,10.642099 C 13.896402,8.5637561 13.566316,6.9820641 12.857405,5.8970161 C 12.246222,4.9495501 11.940671,4.4376041 11.940671,4.3611671 C 11.940671,3.9791471 12.3318,3.7269911 13.114056,3.6047101 C 13.18741,3.4519111 13.224088,3.3067321 13.224088,3.1691631 C 13.224088,2.8329861 12.967437,2.4432985 12.454055,2.0000945 C 11.769516,1.3888363 11.378388,1.0144215 11.280588,0.87685992 C 10.204985,0.03637422 9.6671574,-0.93403078 9.6671574,-2.0343708 C 9.6671574,-2.4316718 9.7405134,-2.8442848 9.8871304,-3.2722168 C 9.9849404,-3.5625518 10.302723,-3.9445938 10.84055,-4.4183768 C 11.623994,-4.9436978 12.020575,-5.5327758 12.344024,-6.36684 C 11.970201,-5.0541448 11.464255,-3.7834138 12.344024,-2.5157598 C 13.199634,-1.8738808 14.470836,-1.7287038 16.157684,-2.0802218 C 17.0133,-2.2635708 18.040065,-2.6685458 19.237909,-3.2951428 C 20.826955,-4.1356238 21.780375,-4.6170058 22.098163,-4.7392948 C 21.218091,-4.2349558 20.778058,-3.7688538 20.778058,-3.3409888 C 20.778058,-3.2186998 20.814731,-3.1040848 20.888082,-2.9971448 C 21.548093,-2.4928058 22.440391,-2.2406498 23.564956,-2.2406778 C 24.200592,-2.2406498 24.799479,-2.3323398 25.361762,-2.5157598 C 26.584132,-2.9130568 27.977577,-3.7230028 29.5421,-4.9456058 C 31.2534,-6.305678 32.561275,-7.184392 33.465787,-7.58176 L 29.798828,2.0688635 z M 29.505499,-2.9742268 C 29.505428,-3.1575738 29.334349,-3.2492628 28.99212,-3.2492918 C 28.625361,-3.2492628 28.356483,-3.1346478 28.185328,-2.9054478 C 27.940904,-2.7678778 27.928677,-2.5844938 28.148655,-2.3552938 C 28.46651,-2.3094218 28.772065,-2.3514428 29.065394,-2.4813738 C 29.358795,-2.6112418 29.505428,-2.7755238 29.505499,-2.9742268 L 29.505499,-2.9742268 z M 28.295357,-0.26929978 C 28.295357,-0.28454378 28.148655,-0.35331578 27.855326,-0.47560278 C 27.635269,-0.44501078 27.525322,-0.26926378 27.525322,0.05163422 C 27.549696,0.15863222 27.733073,0.21212122 28.075381,0.21209022 C 28.270906,0.07458022 28.344257,-0.08587878 28.295357,-0.26929978 L 28.295357,-0.26929978 z M 19.824638,-2.2865248 C 19.677939,-2.3629108 19.555763,-2.3781838 19.457956,-2.3323678 C 19.360159,-2.2712128 19.335706,-2.1871638 19.38461,-2.0802218 C 19.580209,-2.0954658 19.726839,-2.1642428 19.824638,-2.2865248 L 19.824638,-2.2865248 z M 13.297444,-0.26929978 C 13.126288,-0.49849978 12.869637,-0.59018678 12.527401,-0.54437478 C 12.2829,-0.48321678 12.160644,-0.26926378 12.160719,0.09747722 C 12.234,0.21975822 12.319578,0.33437122 12.417377,0.44132122 C 12.539623,0.59417122 12.722928,0.64766022 12.967437,0.60178522 C 13.114056,0.54068222 13.224088,0.25032722 13.297444,-0.26929978 L 13.297444,-0.26929978 z M 21.951533,12.980256 C 21.951458,12.796885 21.743697,12.720478 21.328115,12.751019 C 21.303664,12.766315 21.340342,12.880937 21.438141,13.09487 C 21.707024,13.262988 21.878174,13.224781 21.951533,12.980256 L 21.951533,12.980256 z M 16.56104,25.312882 C 16.512142,25.16006 16.365436,25.045445 16.121009,24.96903 C 16.047663,25.060728 16.059885,25.163883 16.157684,25.278488 C 16.255486,25.393111 16.389889,25.404569 16.56104,25.312882 L 16.56104,25.312882 z M 13.114056,24.76272 C 12.894083,24.625194 12.710706,24.5717 12.564077,24.602261 C 12.564077,24.602268 12.429599,24.747447 12.160719,25.037799 C 12.258454,25.221192 12.490731,25.289956 12.857405,25.244105 C 13.077389,25.121852 13.162966,24.961392 13.114056,24.76272 L 13.114056,24.76272 z "
       id="path2299" />
    <path
       d="M 7.5236179,12.004297 C 6.7637421,12.982254 5.8176514,14.514384 4.6853287,16.600675 C 4.6704101,16.721752 4.7672518,16.782299 4.9758616,16.78229 C 5.0950437,16.782299 5.2440354,16.759011 5.4228363,16.712435 C 5.3483176,16.87078 5.2663765,17.257307 5.1770035,17.872007 C 5.1173847,18.347015 4.9162429,18.710254 4.5735778,18.961725 C 3.1730445,19.976933 1.2436048,20.451941 -1.2147499,20.38674 C -3.2261492,20.330855 -4.6564642,19.888453 -5.5057132,19.059523 C -7.1297292,17.476172 -8.2099202,15.59013 -8.7462862,13.401369 C -8.5824042,13.745983 -8.4259532,13.918299 -8.2769622,13.91829 C -8.2471612,13.918299 -8.2248202,13.913636 -8.2099202,13.904319 C -8.0907292,13.839127 -8.0311292,13.289609 -8.0311292,12.255767 C -8.0311292,9.8155633 -8.2918612,7.8596563 -8.8133372,6.3880593 C -8.4706622,7.0120903 -8.2099202,7.3241013 -8.0311292,7.3241013 C -7.9566382,7.3054843 -7.9119372,7.2589093 -7.8970372,7.1843903 C -7.4649632,5.9084063 -7.0328792,4.6370633 -6.6008042,3.3703759 C -5.9601472,1.9360635 -5.0438482,0.84168264 -3.8519062,0.087253336 C -4.0902982,0.41326024 -4.2094902,0.70198064 -4.2094902,0.95342814 C -4.2094902,1.2794483 -4.0455982,1.5215992 -3.7178152,1.6799209 C -2.9877572,1.7171873 -2.2353492,1.5215992 -1.460592,1.0931434 C -0.90932582,0.72993044 -0.35805099,0.36202904 0.19321461,-0.010547364 C 0.23790541,0.073295236 0.21555561,0.21766544 0.12617331,0.42255004 C 0.036772913,0.66472774 -0.0079272873,0.81840784 -0.0079179873,0.88358384 C -0.0079272873,1.0605654 0.14851441,1.1443879 0.46140641,1.135058 C 0.71468041,1.1257682 1.0797132,1.1886233 1.5564969,1.3236636 C 2.0332626,1.4587307 2.3759369,1.5262609 2.5845381,1.5262341 C 2.912312,1.5262609 3.195395,1.4144886 3.4337958,1.1909374 C 3.4635781,1.0791919 3.478478,0.95345484 3.4784867,0.81372614 C 3.478478,0.64610124 3.4337778,0.38531714 3.3443954,0.031373936 C 3.2549863,-0.32253586 3.2102948,-0.59264316 3.2103042,-0.77892826 C 3.2102948,-0.89999696 3.2251953,-1.0164108 3.2550044,-1.1282098 C 3.5082784,-0.77425986 3.6647194,-0.50415906 3.7243288,-0.31790096 C 3.8137111,0.017422436 4.3724273,1.3539542 5.4004858,3.6917013 C 6.1007344,5.3123253 6.4508587,6.7140533 6.4508768,7.8968973 C 6.4508587,8.0925023 6.4434088,8.2834343 6.4285357,8.4696943 C 6.4136178,8.6652983 6.4136178,9.4523143 6.4285357,10.830753 C 6.4285176,10.905271 6.4955589,10.956502 6.6296689,10.984435 C 6.7488509,11.012386 6.8084423,10.993752 6.8084604,10.928541 C 6.838242,10.760916 6.8605925,10.174139 6.8755104,9.1682293 C 6.8754923,8.4603943 7.0021336,7.8875893 7.255435,7.4498313 C 7.6279001,8.6140773 7.8141327,9.6479103 7.8141509,10.55134 C 7.8141327,11.156751 7.7172914,11.641067 7.5236179,12.004297 L 7.5236179,12.004297 z M 4.8417704,8.3579343 C 4.7374608,8.1902903 4.5959189,8.1297513 4.4171362,8.1763103 C 4.238336,8.2322123 4.1712854,8.3672603 4.2160036,8.5814633 C 4.2159856,8.5721633 4.327727,8.6233853 4.5512368,8.7351443 C 4.7449107,8.7351533 4.8417516,8.6094143 4.8417704,8.3579343 L 4.8417704,8.3579343 z M 4.8194199,7.1424753 C 4.6257099,6.1272883 4.4841687,5.4613433 4.3947957,5.1446603 C 4.1712854,4.4088773 3.8509614,3.7895153 3.4337958,3.2865601 C 3.195395,2.9047005 2.7484204,2.6299449 2.092872,2.4622732 C 1.8544711,2.3970972 1.2436048,2.3039648 0.26026451,2.1828559 C -1.5276514,2.350521 -2.4290412,2.4390118 -2.4439412,2.4483017 C -3.4719912,2.62529 -4.2020482,2.9792131 -4.6341142,3.5100845 C -5.1555892,4.3390263 -5.4163312,4.7488423 -5.4163312,4.7395053 C -5.4163312,4.8233483 -5.3567222,4.8559463 -5.2375302,4.8372993 C -5.0289482,4.8186933 -4.8203562,4.7208863 -4.6117642,4.5439173 C -4.4031822,4.3669763 -4.2318392,4.2552043 -4.0977392,4.2086213 C -5.6621642,6.2017943 -6.4443712,7.8503393 -6.4443712,9.1542683 C -6.4443712,9.4802573 -6.3922212,9.7689863 -6.2879212,10.020457 C -6.2432302,10.076341 -6.1985302,10.104283 -6.1538302,10.104274 C -6.0644382,10.104283 -5.9601472,9.9226593 -5.8409462,9.5594203 C -5.6919642,9.1403063 -5.5578632,8.8795183 -5.4386722,8.7770483 C -5.7813552,10.099629 -5.9526972,11.301116 -5.9526972,12.381507 C -5.9526972,13.238379 -5.8260552,13.908982 -5.5727632,14.393297 C -5.4386722,14.560951 -5.2822402,15.049921 -5.1034392,15.860225 C -4.9544472,16.484253 -4.7160742,16.79627 -4.3882812,16.796261 C -4.3137812,16.79627 -4.2467402,16.791607 -4.1871392,16.78229 C -3.9189652,16.689156 -3.7252652,16.502878 -3.6060732,16.223465 C -3.4421822,15.804341 -3.3453412,15.57615 -3.3155312,15.538891 C -3.3006402,16.013898 -3.2484902,16.446993 -3.1590992,16.838174 C -2.9505162,17.769565 -2.5556822,18.388929 -1.9746073,18.696284 C -1.3339507,18.789418 -0.96147662,18.780101 -0.85717572,18.668341 C -0.75288482,18.444813 -0.87207622,18.174717 -1.2147499,17.858037 C -1.1104677,17.802161 -1.0061675,17.774219 -0.90186722,17.77421 C -0.76778472,17.774219 -0.58899322,17.869685 -0.36549219,18.060608 C -0.14201859,18.25155 0.059122613,18.347015 0.23791481,18.347015 C 0.32730581,18.347015 0.42414751,18.32839 0.52845711,18.291131 C 1.4819877,17.760248 2.0258033,16.87078 2.1599133,15.622717 C 2.3237868,14.113885 2.5770788,13.14059 2.9197713,12.702833 C 2.9495622,13.075389 3.0389533,13.610935 3.1879537,14.309471 C 3.2922359,14.38399 3.4412277,14.351384 3.6349377,14.211674 C 4.2755856,13.17784 4.5959189,12.190584 4.5959283,11.249867 C 4.5959189,10.681743 4.4692682,10.160168 4.2160036,9.6851513 C 3.2922359,7.9714163 2.8303709,6.7699393 2.8303796,6.0806923 C 2.8303709,5.8758143 2.8527119,5.6662413 2.8974208,5.4520133 C 2.9272118,5.1912433 2.9272118,4.8652633 2.8974208,4.4740733 C 3.284786,4.7348713 3.5008278,5.1307023 3.5455373,5.6615803 C 3.6349197,6.5370843 3.6796199,6.9981183 3.6796286,7.0446813 C 3.7690109,7.2868593 4.014853,7.4219083 4.4171362,7.4498313 C 4.7151103,7.4498493 4.8492022,7.3473983 4.8194199,7.1424753 L 4.8194199,7.1424753 z M 4.5735778,17.508768 C 4.5437688,17.49946 4.5325936,17.459879 4.5400622,17.390014 C 4.5474941,17.320168 4.5065279,17.28524 4.4171362,17.28524 C 4.3724273,17.564652 4.3724273,17.713672 4.4171362,17.732297 C 4.5065279,17.732306 4.5474941,17.69971 4.5400622,17.634508 C 4.5325936,17.569316 4.5437688,17.527403 4.5735778,17.508768 L 4.5735778,17.508768 z M 3.769029,18.430842 C 3.6796199,18.337698 3.5678784,18.305102 3.4337958,18.333045 C 3.2996865,18.379611 3.1879451,18.528639 3.0985533,18.780101 C 3.0985533,18.929129 3.2326453,18.989667 3.5008465,18.961725 C 3.7243107,18.877908 3.8137111,18.700937 3.769029,18.430842 L 3.769029,18.430842 z M -3.8519062,17.690392 C -3.8966062,17.578633 -3.9785572,17.532056 -4.0977392,17.550682 C -4.1573482,17.569316 -4.1871492,17.643825 -4.1871392,17.77421 C -4.1424482,17.830094 -4.0604982,17.853382 -3.9413062,17.844066 C -3.8370162,17.834757 -3.8072152,17.783527 -3.8519062,17.690392 L -3.8519062,17.690392 z"
       style="font-size:144px;font-style:normal;font-weight:normal;fill:url(#radialGradient2559);fill-opacity:1;stroke:url(#radialGradient2561);stroke-width:0.47677401;stroke-linecap:butt;stroke-linejoin:miter;stroke-miterlimit:4;stroke-dasharray:none;stroke-opacity:1;font-family:Seaweed Fire AOE"
       id="path3681" />
  </g>
  <g
     inkscape:groupmode="layer"
     id="layer2"
     inkscape:label="rummut"
     style="display:inline" />
</svg>
