<?xml version="1.0" encoding="UTF-8" standalone="no"?>
<!-- Created with Inkscape (http://www.inkscape.org/) -->
<svg
   xmlns:dc="http://purl.org/dc/elements/1.1/"
   xmlns:cc="http://creativecommons.org/ns#"
   xmlns:rdf="http://www.w3.org/1999/02/22-rdf-syntax-ns#"
   xmlns:svg="http://www.w3.org/2000/svg"
   xmlns="http://www.w3.org/2000/svg"
   xmlns:xlink="http://www.w3.org/1999/xlink"
   xmlns:sodipodi="http://sodipodi.sourceforge.net/DTD/sodipodi-0.dtd"
   xmlns:inkscape="http://www.inkscape.org/namespaces/inkscape"
   width="744.09448819"
   height="1052.3622047"
   id="svg3249"
   sodipodi:version="0.32"
   sodipodi:docname="stage_bassdrum.svg"
   inkscape:output_extension="org.inkscape.output.svg.inkscape">
  <defs
     id="defs3251">
    <inkscape:perspective
       sodipodi:type="inkscape:persp3d"
       inkscape:vp_x="0 : 526.18109 : 1"
       inkscape:vp_y="0 : 1000 : 0"
       inkscape:vp_z="744.09448 : 526.18109 : 1"
       inkscape:persp3d-origin="372.04724 : 350.78739 : 1"
       id="perspective33" />
    <linearGradient
       id="linearGradient2762">
      <stop
         id="stop2764"
         offset="0"
         style="stop-color:yellow;stop-opacity:1" />
      <stop
         id="stop2766"
         offset="1"
         style="stop-color:#f10;stop-opacity:0.14432989" />
    </linearGradient>
    <linearGradient
       id="linearGradient3026">
      <stop
         id="stop3028"
         offset="0"
         style="stop-color:black;stop-opacity:1;" />
      <stop
         style="stop-color:#650000;stop-opacity:1;"
         offset="0.21045917"
         id="stop3040" />
      <stop
         style="stop-color:white;stop-opacity:1;"
         offset="0.26785713"
         id="stop3034" />
      <stop
         id="stop3036"
         offset="0.32015306"
         style="stop-color:#862721;stop-opacity:1;" />
      <stop
         id="stop3030"
         offset="1"
         style="stop-color:black;stop-opacity:1;" />
    </linearGradient>
    <linearGradient
       id="linearGradient3189">
      <stop
         id="stop3191"
         offset="0"
         style="stop-color:#202020;stop-opacity:1;" />
      <stop
         id="stop3193"
         offset="1"
         style="stop-color:black;stop-opacity:1;" />
    </linearGradient>
    <linearGradient
       inkscape:collect="always"
       xlink:href="#linearGradient3026"
       id="linearGradient2933"
       gradientUnits="userSpaceOnUse"
       gradientTransform="matrix(0.1717678,0,0,0.165521,-515.79259,-158.4011)"
       x1="2782.0347"
       y1="690.1499"
       x2="3297.7461"
       y2="800.95081" />
    <linearGradient
       inkscape:collect="always"
       xlink:href="#linearGradient3189"
       id="linearGradient4404"
       gradientUnits="userSpaceOnUse"
       gradientTransform="matrix(0.1645488,0,0,0.1620335,-674.30004,-134.31476)"
       x1="2974.4622"
       y1="996.84381"
       x2="2981.9832"
       y2="848.20502" />
    <radialGradient
       inkscape:collect="always"
       xlink:href="#linearGradient2762"
       id="radialGradient2623"
       gradientUnits="userSpaceOnUse"
       gradientTransform="matrix(3.629584,6.557126e-3,-8.427706e-5,4.665013e-2,-1392.8364,-10.331663)"
       cx="431.67523"
       cy="198.44926"
       fx="431.67523"
       fy="198.44926"
       r="340.46094" />
    <radialGradient
       inkscape:collect="always"
       xlink:href="#linearGradient2762"
       id="radialGradient2626"
       gradientUnits="userSpaceOnUse"
       gradientTransform="matrix(0.521524,0,0,0.729052,-51.179929,-107.27244)"
       cx="69.479897"
       cy="146.89619"
       fx="69.479897"
       fy="146.89619"
       r="24.515623" />
    <radialGradient
       inkscape:collect="always"
       xlink:href="#linearGradient2762"
       id="radialGradient2301"
       gradientUnits="userSpaceOnUse"
       gradientTransform="matrix(3.629584,6.557126e-3,-8.427706e-5,4.665013e-2,-1356.6424,-9.5397133)"
       cx="431.67523"
       cy="198.44926"
       fx="431.67523"
       fy="198.44926"
       r="340.46094" />
    <radialGradient
       inkscape:collect="always"
       xlink:href="#linearGradient2762"
       id="radialGradient2303"
       gradientUnits="userSpaceOnUse"
       gradientTransform="matrix(0.521524,0,0,0.729052,-14.985449,-106.48044)"
       cx="69.479897"
       cy="146.89619"
       fx="69.479897"
       fy="146.89619"
       r="24.515623" />
    <radialGradient
       inkscape:collect="always"
       xlink:href="#linearGradient2762"
       id="radialGradient2559"
       gradientUnits="userSpaceOnUse"
       gradientTransform="matrix(2.212091,3.996315e-3,-5.13636e-5,2.843144e-2,-943.16563,-5.822239)"
       cx="431.67523"
       cy="198.44926"
       fx="431.67523"
       fy="198.44926"
       r="340.46094" />
    <radialGradient
       inkscape:collect="always"
       xlink:href="#linearGradient2762"
       id="radialGradient2561"
       gradientUnits="userSpaceOnUse"
       gradientTransform="matrix(0.910761,0,0,1.171321,-212.40553,-205.293)"
       cx="232.86505"
       cy="175.56206"
       fx="232.86505"
       fy="175.56206"
       r="9.3900862" />
  </defs>
  <sodipodi:namedview
     id="base"
     pagecolor="#ffffff"
     bordercolor="#666666"
     borderopacity="1.0"
     gridtolerance="10000"
     guidetolerance="10"
     objecttolerance="10"
     inkscape:pageopacity="0.0"
     inkscape:pageshadow="2"
     inkscape:zoom="5.6"
     inkscape:cx="39.408681"
     inkscape:cy="1045.939"
     inkscape:document-units="px"
     inkscape:current-layer="layer1"
     inkscape:window-width="1280"
     inkscape:window-height="878"
     inkscape:window-x="44"
     inkscape:window-y="0"
     showgrid="false" />
  <metadata
     id="metadata3254">
    <rdf:RDF>
      <cc:Work
         rdf:about="">
        <dc:format>image/svg+xml</dc:format>
        <dc:type
           rdf:resource="http://purl.org/dc/dcmitype/StillImage" />
      </cc:Work>
    </rdf:RDF>
  </metadata>
  <g
     inkscape:label="Layer 1"
     inkscape:groupmode="layer"
     id="layer1"
     style="display:inline">
    <path
       style="fill:url(#linearGradient2933);fill-opacity:1;fill-rule:evenodd;stroke:#000000;stroke-width:0.76364309;stroke-linecap:butt;stroke-linejoin:miter;marker:none;marker-start:none;marker-mid:none;marker-end:none;stroke-miterlimit:4;stroke-dashoffset:0;stroke-opacity:1;visibility:visible;display:inline;overflow:visible"
       d="M -44.340247,-1.4027628 C -45.350397,-29.587102 -30.436827,-50.732316 -0.12633018,-50.251044 C 30.3783,-50.319752 44.96321,-33.183985 44.84635,-1.1934128"
       id="path3422"
       sodipodi:nodetypes="ccc" />
    <path
       style="fill:url(#linearGradient4404);fill-opacity:1;fill-rule:nonzero;stroke:#000000;stroke-width:2.29181337;stroke-linecap:butt;stroke-linejoin:miter;marker:none;marker-start:none;marker-mid:none;marker-end:none;stroke-miterlimit:1;stroke-dashoffset:0;stroke-opacity:1;visibility:visible;display:inline;overflow:visible;enable-background:accumulate"
       d="M 44.651476,0.34650777 C 44.651476,23.36214 24.727614,42.041493 0.17857147,42.041493 C -24.370472,42.041493 -44.294333,23.36214 -44.294333,0.34650777 C -44.294333,-22.669124 -24.370472,-41.348477 0.17857147,-41.348477 C 24.641064,-41.348477 44.515321,-22.818534 44.650794,0.11560191"
       id="path4402" />
    <path
       style="font-size:144px;font-style:normal;font-weight:normal;fill:url(#radialGradient2623);fill-opacity:1;stroke:url(#radialGradient2626);stroke-width:0.78228718;stroke-linecap:butt;stroke-linejoin:miter;stroke-miterlimit:4;stroke-opacity:1;font-family:Seaweed Fire AOE"
       d="M -6.2170772,-8.0088026 C -6.3882272,-7.7795512 -6.7426832,-7.4891886 -7.2805212,-7.1377302 C -7.5738422,-7.0918558 -8.0383292,-7.1835533 -8.6739612,-7.4128047 C -9.0406402,-7.6267297 -9.2973712,-8.2303728 -9.4440012,-9.223724 C -9.5418002,-9.9725227 -10.152984,-10.369856 -11.277482,-10.41573 C -11.717587,-10.278166 -12.389825,-10.163545 -13.294338,-10.071886 C -14.247757,-10.285804 -15.298974,-10.423345 -16.447915,-10.484499 C -17.694738,-10.545595 -18.477,-10.469188 -18.794782,-10.255271 C -19.552665,-9.7203687 -19.870442,-9.3001103 -19.748197,-8.9944956 C -19.577116,-8.6276979 -19.357061,-8.4443132 -19.088183,-8.4443414 C -18.965933,-8.4443132 -18.831455,-8.5054448 -18.684828,-8.6277338 C -18.758102,-8.2609284 -19.088183,-7.6190844 -19.674841,-6.7021837 C -20.188225,-5.922778 -20.396058,-5.2503656 -20.298249,-4.6849592 C -20.249357,-4.5168343 -20.066051,-4.2952411 -19.748197,-4.0201845 C -18.770329,-4.2188342 -17.988067,-4.6620105 -17.40133,-5.3497289 C -17.205805,-5.6553411 -17.022428,-5.922778 -16.85127,-6.1520295 C -16.973528,-5.8616515 -17.156905,-5.5942171 -17.40133,-5.3497289 C -18.794782,-3.133808 -19.46709,-1.4222126 -19.418185,-0.21495659 C -19.393739,0.18239771 -18.978157,0.51096731 -18.171444,0.77073671 C -16.533495,0.77075871 -15.518957,0.54917461 -15.127823,0.10596851 C -14.981191,-0.046831186 -14.480034,-0.90262139 -13.624339,-2.4614171 C -13.037682,-3.485296 -12.230894,-4.2417522 -11.204129,-4.7308028 C -11.448633,-4.5015463 -11.70536,-4.1195017 -11.974243,-3.5846514 C -12.047589,-3.4470887 -12.08427,-3.3095485 -12.08427,-3.1720299 C -12.08427,-2.9580604 -11.962017,-2.6829871 -11.717508,-2.3467952 C -11.424187,-1.9647297 -11.253101,-1.689649 -11.204129,-1.5215677 C -11.17975,-1.1853467 -11.240874,-0.25314179 -11.387506,1.2750467 C -11.509759,2.4059397 -11.41196,3.3305007 -11.094177,4.0487427 C -10.776395,4.8281407 -11.13085,5.3171687 -12.157541,5.5158197 C -12.817627,5.5158347 -13.331011,5.4241387 -13.697693,5.2407467 C -14.504485,4.3085497 -14.981191,3.7736847 -15.127823,3.6361217 C -15.836806,3.0554267 -16.655746,2.7574207 -17.584712,2.7421247 C -18.562572,2.8796797 -19.051505,3.3228557 -19.051505,4.0716617 C -19.051505,4.1939357 -19.039283,4.3887867 -19.014832,4.6561997 C -18.990379,4.9236587 -18.978157,5.1185027 -18.978157,5.2407467 C -18.978157,5.5311157 -19.027059,5.7679907 -19.124856,5.9513597 C -19.418185,6.4862487 -19.528216,7.1968617 -19.454865,8.0832067 C -19.381512,8.5263987 -19.14931,8.7479817 -18.758102,8.7479817 C -18.611477,8.7479817 -18.440319,8.7097837 -18.244723,8.6333617 C -18.220344,9.1529677 -18.342522,9.8635807 -18.611477,10.765207 C -18.880352,11.72799 -19.014832,12.430958 -19.014832,12.874134 C -19.014832,13.302038 -18.941479,13.707013 -18.794782,14.089058 C -18.672604,14.409984 -18.318069,14.478753 -17.731411,14.295368 C -17.315829,14.08142 -17.052991,13.645881 -16.94296,12.988749 C -16.833013,12.331625 -16.545722,11.896094 -16.081235,11.682131 C -16.154586,11.819679 -16.191267,11.972501 -16.191267,12.140597 C -16.191267,12.430958 -16.038453,12.954371 -15.732897,13.710828 C -15.427336,14.467293 -15.27452,15.044188 -15.27452,15.44152 C -15.27452,15.961119 -15.457899,16.411933 -15.824579,16.793983 C -16.240166,17.084345 -16.839123,17.25245 -17.621385,17.298293 C -18.354747,17.328857 -18.990379,17.248627 -19.528216,17.057597 C -20.066051,16.866577 -20.799408,16.755785 -21.728374,16.725214 C -22.486185,16.69465 -23.244077,16.671732 -24.001888,16.656442 C -24.613071,16.564754 -25.224255,16.480702 -25.835364,16.404288 C -26.544346,16.266754 -26.984385,16.0146 -27.155458,15.647823 C -27.277703,15.418602 -27.338835,15.158811 -27.338835,14.86844 C -27.338835,14.562805 -27.241036,14.089066 -27.045509,13.447209 C -26.849907,12.805372 -26.752098,12.323987 -26.752098,12.003064 C -26.752098,11.621012 -26.849907,11.277168 -27.045509,10.971517 C -26.605481,11.598094 -26.128775,12.583787 -25.615383,13.928599 C -25.224255,14.264805 -24.869722,14.318294 -24.55194,14.089058 C -24.111912,13.523628 -23.788012,12.606705 -23.580189,11.338279 C -23.372437,10.069892 -23.085144,9.1682407 -22.718461,8.6333617 C -22.669562,8.3735777 -22.645108,8.1061407 -22.645108,7.8310507 C -22.645108,7.0516757 -22.889617,5.8902487 -23.378555,4.3467427 C -23.867482,2.8032727 -24.111912,1.6418307 -24.111912,0.86242571 C -24.111912,0.067783314 -23.928532,-0.67339999 -23.56185,-1.3611089 C -23.708551,-0.12324569 -23.378555,0.61793731 -22.571762,0.86242571 L -22.16841,0.56443401 C -22.119503,-1.5139086 -22.449589,-3.0956007 -23.1585,-4.1806487 C -23.769683,-5.1281151 -24.075234,-5.6400608 -24.075234,-5.7164984 C -24.075234,-6.0985175 -23.684105,-6.3506741 -22.901849,-6.4729554 C -22.828495,-6.6257538 -22.791817,-6.7709325 -22.791817,-6.9085018 C -22.791817,-7.2446798 -23.048468,-7.6343673 -23.56185,-8.0775719 C -24.246389,-8.6888296 -24.637517,-9.0632444 -24.735317,-9.200806 C -25.81092,-10.041292 -26.348748,-11.011697 -26.348748,-12.112037 C -26.348748,-12.509338 -26.275392,-12.921951 -26.128775,-13.349883 C -26.030965,-13.640218 -25.713182,-14.02226 -25.175355,-14.496043 C -24.391911,-15.021364 -23.99533,-15.610441 -23.671881,-16.444505 C -24.045704,-15.131811 -24.55165,-13.86108 -23.671881,-12.593426 C -22.816271,-11.951547 -21.545069,-11.80637 -19.858221,-12.157888 C -19.002605,-12.341237 -17.97584,-12.746212 -16.777996,-13.372809 C -15.18895,-14.21329 -14.23553,-14.694672 -13.917742,-14.816961 C -14.797814,-14.312622 -15.237847,-13.84652 -15.237847,-13.418655 C -15.237847,-13.296366 -15.201174,-13.181751 -15.127823,-13.074811 C -14.467812,-12.570472 -13.575514,-12.318316 -12.450949,-12.318344 C -11.815315,-12.318316 -11.216428,-12.410006 -10.654144,-12.593426 C -9.4317742,-12.990723 -8.0383292,-13.800669 -6.4738052,-15.023272 C -4.7625062,-16.383343 -3.4546307,-17.262058 -2.5501184,-17.659426 L -6.2170772,-8.0088026 z M -6.5104062,-13.051893 C -6.5104782,-13.23524 -6.6815562,-13.326929 -7.0237852,-13.326958 C -7.3905442,-13.326929 -7.6594222,-13.212314 -7.8305772,-12.983114 C -8.0750012,-12.845544 -8.0872282,-12.66216 -7.8672502,-12.43296 C -7.5493962,-12.387088 -7.2438402,-12.429109 -6.9505112,-12.55904 C -6.6571102,-12.688908 -6.5104782,-12.85319 -6.5104062,-13.051893 L -6.5104062,-13.051893 z M -7.7205492,-10.346966 C -7.7205492,-10.36221 -7.8672502,-10.430982 -8.1605792,-10.553269 C -8.3806372,-10.522677 -8.4905842,-10.34693 -8.4905842,-10.026032 C -8.4662092,-9.9190337 -8.2828322,-9.8655447 -7.9405242,-9.8655757 C -7.7450002,-10.003086 -7.6716492,-10.163545 -7.7205492,-10.346966 L -7.7205492,-10.346966 z M -16.191267,-12.364191 C -16.337966,-12.440577 -16.460142,-12.45585 -16.557949,-12.410034 C -16.655746,-12.348879 -16.680199,-12.26483 -16.631295,-12.157888 C -16.435696,-12.173132 -16.289066,-12.241909 -16.191267,-12.364191 L -16.191267,-12.364191 z M -22.718461,-10.346966 C -22.889617,-10.576166 -23.146268,-10.667853 -23.488504,-10.622041 C -23.733005,-10.560883 -23.855261,-10.34693 -23.855186,-9.9801887 C -23.781905,-9.8579077 -23.696327,-9.7432947 -23.598528,-9.6363447 C -23.476282,-9.4834947 -23.292977,-9.4300057 -23.048468,-9.4758807 C -22.901849,-9.5369837 -22.791817,-9.8273387 -22.718461,-10.346966 L -22.718461,-10.346966 z M -14.064372,2.9025907 C -14.064447,2.7192207 -14.272208,2.6428137 -14.68779,2.6733547 C -14.712241,2.6886507 -14.675563,2.8032727 -14.577764,3.0172057 C -14.308881,3.1853237 -14.137731,3.1471157 -14.064372,2.9025907 L -14.064372,2.9025907 z M -19.454865,15.235218 C -19.503763,15.082396 -19.650469,14.967781 -19.894896,14.891366 C -19.968242,14.983064 -19.95602,15.086219 -19.858221,15.200824 C -19.760419,15.315447 -19.626016,15.326905 -19.454865,15.235218 L -19.454865,15.235218 z M -22.901849,14.685056 C -23.121822,14.54753 -23.305199,14.494036 -23.451828,14.524597 C -23.451828,14.524604 -23.586306,14.669783 -23.855186,14.960135 C -23.757451,15.143528 -23.525174,15.212292 -23.1585,15.166441 C -22.938516,15.044188 -22.852939,14.883728 -22.901849,14.685056 L -22.901849,14.685056 z"
       id="path3691" />
    <path
       style="font-size:144px;font-style:normal;font-weight:normal;fill:url(#radialGradient2301);fill-opacity:1;stroke:url(#radialGradient2303);stroke-width:0.78228718;stroke-linecap:butt;stroke-linejoin:miter;stroke-miterlimit:4;stroke-opacity:1;display:inline;font-family:Seaweed Fire AOE"
       d="M 29.977399,-7.2168508 C 29.806249,-6.9875998 29.451794,-6.6972372 28.913956,-6.3457792 C 28.620635,-6.2999052 28.156148,-6.3916022 27.520516,-6.6208532 C 27.153836,-6.8347778 26.897106,-7.4384208 26.750476,-8.4317724 C 26.652676,-9.1805711 26.041493,-9.5779041 24.916995,-9.6237781 C 24.47689,-9.4862141 23.804652,-9.3715931 22.900139,-9.2799341 C 21.946719,-9.4938521 20.895502,-9.6313931 19.746561,-9.6925471 C 18.499738,-9.7536431 17.717476,-9.6772361 17.399694,-9.4633191 C 16.641811,-8.9284171 16.324034,-8.5081587 16.446279,-8.202544 C 16.61736,-7.8357463 16.837415,-7.6523618 17.106293,-7.6523898 C 17.228543,-7.6523618 17.363021,-7.7134928 17.509648,-7.8357822 C 17.436374,-7.4689768 17.106293,-6.8271328 16.519635,-5.9102332 C 16.006251,-5.1308272 15.798418,-4.4584152 15.896227,-3.8930082 C 15.945119,-3.7248832 16.128425,-3.5032902 16.446279,-3.2282332 C 17.424147,-3.4268832 18.206409,-3.8700602 18.793146,-4.5577782 C 18.988671,-4.8633902 19.172048,-5.1308272 19.343206,-5.3600792 C 19.220948,-5.0697012 19.037571,-4.8022662 18.793146,-4.5577782 C 17.399694,-2.3418572 16.727386,-0.63026219 16.776291,0.57699381 C 16.800737,0.97434871 17.216319,1.3029177 18.023032,1.5626877 C 19.660981,1.5627097 20.675519,1.3411257 21.066653,0.89791971 C 21.213285,0.74511971 21.714442,-0.11067019 22.570137,-1.6694662 C 23.156795,-2.6933452 23.963583,-3.4498012 24.990348,-3.9388522 C 24.745845,-3.7095952 24.489117,-3.3275512 24.220234,-2.7927002 C 24.146888,-2.6551382 24.110208,-2.5175982 24.110208,-2.3800792 C 24.110208,-2.1661092 24.232461,-1.8910362 24.47697,-1.5548442 C 24.770291,-1.1727792 24.941377,-0.89769819 24.990348,-0.72961719 C 25.014728,-0.39339619 24.953604,0.53880881 24.806971,2.0669977 C 24.684718,3.1978907 24.782518,4.1224507 25.1003,4.8406937 C 25.418083,5.6200917 25.063627,6.1091197 24.036936,6.3077707 C 23.37685,6.3077857 22.863466,6.2160897 22.496783,6.0326977 C 21.689991,5.1005007 21.213285,4.5656347 21.066653,4.4280727 C 20.35767,3.8473777 19.53873,3.5493707 18.609764,3.5340747 C 17.631904,3.6716297 17.142971,4.1148067 17.142971,4.8636117 C 17.142971,4.9858857 17.155193,5.1807377 17.179644,5.4481507 C 17.204097,5.7156097 17.216319,5.9104537 17.216319,6.0326977 C 17.216319,6.3230667 17.167417,6.5599407 17.06962,6.7433097 C 16.776291,7.2781987 16.66626,7.9888117 16.739611,8.8751567 C 16.812964,9.3183487 17.045166,9.5399317 17.436374,9.5399317 C 17.582999,9.5399317 17.754157,9.5017337 17.949753,9.4253117 C 17.974132,9.9449177 17.851954,10.655531 17.582999,11.557157 C 17.314124,12.51994 17.179644,13.222908 17.179644,13.666084 C 17.179644,14.093988 17.252997,14.498963 17.399694,14.881008 C 17.521872,15.201934 17.876407,15.270703 18.463065,15.087318 C 18.878647,14.87337 19.141485,14.437831 19.251516,13.780699 C 19.361463,13.123575 19.648754,12.688044 20.113241,12.474081 C 20.03989,12.611629 20.003209,12.764451 20.003209,12.932547 C 20.003209,13.222908 20.156023,13.746321 20.461579,14.502778 C 20.76714,15.259243 20.919956,15.836138 20.919956,16.23347 C 20.919956,16.753069 20.736577,17.203883 20.369897,17.585933 C 19.95431,17.876295 19.355353,18.0444 18.573091,18.090243 C 17.839729,18.120807 17.204097,18.040577 16.66626,17.849547 C 16.128425,17.658527 15.395068,17.547735 14.466102,17.517164 C 13.708291,17.4866 12.950399,17.463682 12.192588,17.448392 C 11.581405,17.356704 10.970221,17.272652 10.359112,17.196238 C 9.6501308,17.058704 9.2100918,16.80655 9.0390188,16.439773 C 8.9167738,16.210552 8.8556418,15.950761 8.8556418,15.66039 C 8.8556418,15.354755 8.9534408,14.881016 9.1489678,14.239159 C 9.3445698,13.597322 9.4423788,13.115937 9.4423788,12.795014 C 9.4423788,12.412962 9.3445698,12.069118 9.1489678,11.763467 C 9.5889958,12.390044 10.065702,13.375737 10.579093,14.720549 C 10.970221,15.056755 11.324754,15.110244 11.642536,14.881008 C 12.082564,14.315578 12.406464,13.398655 12.614287,12.130229 C 12.822039,10.861842 13.109332,9.9601907 13.476015,9.4253117 C 13.524914,9.1655277 13.549368,8.8980907 13.549368,8.6230007 C 13.549368,7.8436257 13.304859,6.6821997 12.815921,5.1386927 C 12.326994,3.5952227 12.082564,2.4337817 12.082564,1.6543767 C 12.082564,0.85973371 12.265944,0.11855081 12.632626,-0.56915819 C 12.485925,0.66870481 12.815921,1.4098877 13.622714,1.6543767 L 14.026066,1.3563847 C 14.074973,-0.72195819 13.744887,-2.3036502 13.035976,-3.3886982 C 12.424793,-4.3361642 12.119242,-4.8481102 12.119242,-4.9245472 C 12.119242,-5.3065672 12.510371,-5.5587232 13.292627,-5.6810042 C 13.365981,-5.8338032 13.402659,-5.9789822 13.402659,-6.1165512 C 13.402659,-6.4527282 13.146008,-6.8424158 12.632626,-7.2856198 C 11.948087,-7.896878 11.556959,-8.2712928 11.459159,-8.4088544 C 10.383556,-9.2493401 9.8457288,-10.219745 9.8457288,-11.320085 C 9.8457288,-11.717386 9.9190848,-12.129999 10.065702,-12.557931 C 10.163512,-12.848266 10.481294,-13.230308 11.019121,-13.704091 C 11.802565,-14.229412 12.199146,-14.81849 12.522595,-15.652554 C 12.148772,-14.339859 11.642826,-13.069128 12.522595,-11.801474 C 13.378205,-11.159595 14.649407,-11.014418 16.336255,-11.365936 C 17.191871,-11.549285 18.218636,-11.95426 19.41648,-12.580857 C 21.005526,-13.421338 21.958946,-13.90272 22.276734,-14.025009 C 21.396662,-13.52067 20.956629,-13.054568 20.956629,-12.626703 C 20.956629,-12.504414 20.993302,-12.389799 21.066653,-12.282859 C 21.726664,-11.77852 22.618962,-11.526364 23.743527,-11.526392 C 24.379163,-11.526364 24.97805,-11.618054 25.540333,-11.801474 C 26.762703,-12.198771 28.156148,-13.008717 29.720671,-14.23132 C 31.431971,-15.591392 32.739846,-16.470106 33.644358,-16.867474 L 29.977399,-7.2168508 z M 29.68407,-12.259941 C 29.683999,-12.443288 29.51292,-12.534977 29.170691,-12.535006 C 28.803932,-12.534977 28.535054,-12.420362 28.363899,-12.191162 C 28.119475,-12.053592 28.107248,-11.870208 28.327226,-11.641008 C 28.645081,-11.595136 28.950636,-11.637157 29.243965,-11.767088 C 29.537366,-11.896956 29.683999,-12.061238 29.68407,-12.259941 L 29.68407,-12.259941 z M 28.473928,-9.5550141 C 28.473928,-9.5702581 28.327226,-9.6390301 28.033897,-9.7613171 C 27.81384,-9.7307251 27.703893,-9.5549781 27.703893,-9.2340801 C 27.728267,-9.1270821 27.911644,-9.0735931 28.253952,-9.0736241 C 28.449477,-9.2111341 28.522828,-9.3715931 28.473928,-9.5550141 L 28.473928,-9.5550141 z M 20.003209,-11.572239 C 19.85651,-11.648625 19.734334,-11.663898 19.636527,-11.618082 C 19.53873,-11.556927 19.514277,-11.472878 19.563181,-11.365936 C 19.75878,-11.38118 19.90541,-11.449957 20.003209,-11.572239 L 20.003209,-11.572239 z M 13.476015,-9.5550141 C 13.304859,-9.7842141 13.048208,-9.8759011 12.705972,-9.8300891 C 12.461471,-9.7689311 12.339215,-9.5549781 12.33929,-9.1882371 C 12.412571,-9.0659561 12.498149,-8.9513431 12.595948,-8.8443931 C 12.718194,-8.6915431 12.901499,-8.6380541 13.146008,-8.6839291 C 13.292627,-8.7450321 13.402659,-9.0353871 13.476015,-9.5550141 L 13.476015,-9.5550141 z M 22.130104,3.6945417 C 22.130029,3.5111707 21.922268,3.4347637 21.506686,3.4653047 C 21.482235,3.4806007 21.518913,3.5952227 21.616712,3.8091557 C 21.885595,3.9772737 22.056745,3.9390667 22.130104,3.6945417 L 22.130104,3.6945417 z M 16.739611,16.027168 C 16.690713,15.874346 16.544007,15.759731 16.29958,15.683316 C 16.226234,15.775014 16.238456,15.878169 16.336255,15.992774 C 16.434057,16.107397 16.56846,16.118855 16.739611,16.027168 L 16.739611,16.027168 z M 13.292627,15.477006 C 13.072654,15.33948 12.889277,15.285986 12.742648,15.316547 C 12.742648,15.316554 12.60817,15.461733 12.33929,15.752085 C 12.437025,15.935478 12.669302,16.004242 13.035976,15.958391 C 13.25596,15.836138 13.341537,15.675678 13.292627,15.477006 L 13.292627,15.477006 z"
       id="path2299" />
    <path
       d="M 7.7021893,2.7185827 C 6.9423135,3.6965397 5.9962228,5.2286697 4.8639001,7.3149607 C 4.8489815,7.4360377 4.9458232,7.4965847 5.154433,7.4965757 C 5.2736151,7.4965847 5.4226068,7.4732967 5.6014077,7.4267207 C 5.526889,7.5850657 5.4449479,7.9715927 5.3555749,8.5862927 C 5.2959561,9.0613007 5.0948143,9.4245397 4.7521492,9.6760107 C 3.3516159,10.691219 1.4221762,11.166227 -1.0361785,11.101026 C -3.0475778,11.045141 -4.4778928,10.602739 -5.3271418,9.7738087 C -6.9511578,8.1904577 -8.0313488,6.3044157 -8.5677148,4.1156547 C -8.4038328,4.4602687 -8.2473818,4.6325847 -8.0983908,4.6325757 C -8.0685898,4.6325847 -8.0462488,4.6279217 -8.0313488,4.6186047 C -7.9121578,4.5534127 -7.8525578,4.0038947 -7.8525578,2.9700527 C -7.8525578,0.52984901 -8.1132898,-1.426058 -8.6347658,-2.897655 C -8.2920908,-2.273624 -8.0313488,-1.961613 -7.8525578,-1.961613 C -7.7780668,-1.98023 -7.7333658,-2.026805 -7.7184658,-2.101324 C -7.2863918,-3.377308 -6.8543078,-4.648651 -6.4222328,-5.9153384 C -5.7815758,-7.3496508 -4.8652768,-8.4440316 -3.6733348,-9.1984609 C -3.9117268,-8.872454 -4.0309188,-8.5837336 -4.0309188,-8.3322861 C -4.0309188,-8.006266 -3.8670268,-7.7641151 -3.5392438,-7.6057934 C -2.8091858,-7.568527 -2.0567778,-7.7641151 -1.2820206,-8.1925709 C -0.73075439,-8.5557838 -0.17947956,-8.9236852 0.37178604,-9.2962616 C 0.41647684,-9.212419 0.39412704,-9.0680488 0.30474474,-8.8631642 C 0.21534434,-8.6209865 0.17064414,-8.4673064 0.17065344,-8.4021304 C 0.17064414,-8.2251489 0.32708584,-8.1413264 0.63997784,-8.1506563 C 0.89325184,-8.1599461 1.2582846,-8.097091 1.7350683,-7.9620507 C 2.211834,-7.8269836 2.5545083,-7.7594534 2.7631095,-7.7594802 C 3.0908834,-7.7594534 3.3739664,-7.8712257 3.6123672,-8.0947769 C 3.6421495,-8.2065224 3.6570494,-8.3322594 3.6570581,-8.4719881 C 3.6570494,-8.639613 3.6123492,-8.9003971 3.5229668,-9.2543403 C 3.4335577,-9.6082501 3.3888662,-9.8783574 3.3888756,-10.064643 C 3.3888662,-10.185711 3.4037667,-10.302125 3.4335758,-10.413924 C 3.6868498,-10.059974 3.8432908,-9.7898733 3.9029002,-9.6036152 C 3.9922825,-9.2682918 4.5509987,-7.9317601 5.5790572,-5.594013 C 6.2793058,-3.973389 6.6294301,-2.571661 6.6294482,-1.388817 C 6.6294301,-1.193212 6.6219802,-1.00228 6.6071071,-0.81601999 C 6.5921892,-0.62041599 6.5921892,0.16660001 6.6071071,1.5450387 C 6.607089,1.6195567 6.6741303,1.6707877 6.8082403,1.6987207 C 6.9274223,1.7266717 6.9870137,1.7080377 6.9870318,1.6428267 C 7.0168134,1.4752017 7.0391639,0.88842471 7.0540818,-0.11748499 C 7.0540637,-0.82531999 7.180705,-1.398125 7.4340064,-1.835883 C 7.8064715,-0.67163699 7.9927041,0.36219601 7.9927223,1.2656257 C 7.9927041,1.8710367 7.8958628,2.3553527 7.7021893,2.7185827 L 7.7021893,2.7185827 z M 5.0203418,-0.92777999 C 4.9160322,-1.095424 4.7744903,-1.155963 4.5957076,-1.109404 C 4.4169074,-1.053502 4.3498568,-0.91845399 4.394575,-0.70425099 C 4.394557,-0.71355099 4.5062984,-0.66232899 4.7298082,-0.55056999 C 4.9234821,-0.55056099 5.020323,-0.67629999 5.0203418,-0.92777999 L 5.0203418,-0.92777999 z M 4.9979913,-2.143239 C 4.8042813,-3.158426 4.6627401,-3.824371 4.5733671,-4.141054 C 4.3498568,-4.876837 4.0295328,-5.496199 3.6123672,-5.9991542 C 3.3739664,-6.3810138 2.9269918,-6.6557694 2.2714434,-6.8234411 C 2.0330425,-6.8886171 1.4221762,-6.9817495 0.43883594,-7.1028584 C -1.34908,-6.9351933 -2.2504698,-6.8467025 -2.2653698,-6.8374126 C -3.2934198,-6.6604243 -4.0234768,-6.3065012 -4.4555428,-5.7756298 C -4.9770178,-4.946688 -5.2377598,-4.536872 -5.2377598,-4.546209 C -5.2377598,-4.462366 -5.1781508,-4.429768 -5.0589588,-4.448415 C -4.8503768,-4.467021 -4.6417848,-4.564828 -4.4331928,-4.741797 C -4.2246108,-4.918738 -4.0532678,-5.03051 -3.9191678,-5.077093 C -5.4835928,-3.08392 -6.2657998,-1.435375 -6.2657998,-0.13144599 C -6.2657998,0.19454301 -6.2136498,0.48327201 -6.1093498,0.73474271 C -6.0646588,0.79062671 -6.0199588,0.81856871 -5.9752588,0.81855971 C -5.8858668,0.81856871 -5.7815758,0.63694501 -5.6623748,0.27370601 C -5.5133928,-0.14540799 -5.3792918,-0.40619599 -5.2601008,-0.50866599 C -5.6027838,0.81391471 -5.7741258,2.0154017 -5.7741258,3.0957927 C -5.7741258,3.9526647 -5.6474838,4.6232677 -5.3941918,5.1075827 C -5.2601008,5.2752367 -5.1036688,5.7642067 -4.9248678,6.5745107 C -4.7758758,7.1985387 -4.5375028,7.5105557 -4.2097098,7.5105467 C -4.1352098,7.5105557 -4.0681688,7.5058927 -4.0085678,7.4965757 C -3.7403938,7.4034417 -3.5466938,7.2171637 -3.4275018,6.9377507 C -3.2636108,6.5186267 -3.1667698,6.2904357 -3.1369598,6.2531767 C -3.1220688,6.7281837 -3.0699188,7.1612787 -2.9805278,7.5524597 C -2.7719448,8.4838507 -2.3771108,9.1032147 -1.7960359,9.4105697 C -1.1553793,9.5037037 -0.78290519,9.4943867 -0.67860429,9.3826267 C -0.57431339,9.1590987 -0.69350479,8.8890027 -1.0361785,8.5723227 C -0.93189627,8.5164467 -0.82759607,8.4885047 -0.72329579,8.4884957 C -0.58921329,8.4885047 -0.41042179,8.5839707 -0.18692076,8.7748937 C 0.036552839,8.9658357 0.23769404,9.0613007 0.41648624,9.0613007 C 0.50587724,9.0613007 0.60271894,9.0426757 0.70702854,9.0054167 C 1.6605591,8.4745337 2.2043747,7.5850657 2.3384847,6.3370027 C 2.5023582,4.8281707 2.7556502,3.8548757 3.0983427,3.4171187 C 3.1281336,3.7896747 3.2175247,4.3252207 3.3665251,5.0237567 C 3.4708073,5.0982757 3.6197991,5.0656697 3.8135091,4.9259597 C 4.454157,3.8921257 4.7744903,2.9048697 4.7744997,1.9641527 C 4.7744903,1.3960287 4.6478396,0.87445371 4.394575,0.39943701 C 3.4708073,-1.314298 3.0089423,-2.515775 3.008951,-3.205022 C 3.0089423,-3.4099 3.0312833,-3.619473 3.0759922,-3.833701 C 3.1057832,-4.094471 3.1057832,-4.420451 3.0759922,-4.811641 C 3.4633574,-4.550843 3.6793992,-4.155012 3.7241087,-3.624134 C 3.8134911,-2.74863 3.8581913,-2.287596 3.8582,-2.241033 C 3.9475823,-1.998855 4.1934244,-1.863806 4.5957076,-1.835883 C 4.8936817,-1.835865 5.0277736,-1.938316 4.9979913,-2.143239 L 4.9979913,-2.143239 z M 4.7521492,8.2230537 C 4.7223402,8.2137457 4.711165,8.1741647 4.7186336,8.1042997 C 4.7260655,8.0344537 4.6850993,7.9995257 4.5957076,7.9995257 C 4.5509987,8.2789377 4.5509987,8.4279577 4.5957076,8.4465827 C 4.6850993,8.4465917 4.7260655,8.4139957 4.7186336,8.3487937 C 4.711165,8.2836017 4.7223402,8.2416887 4.7521492,8.2230537 L 4.7521492,8.2230537 z M 3.9476004,9.1451277 C 3.8581913,9.0519837 3.7464498,9.0193877 3.6123672,9.0473307 C 3.4782579,9.0938967 3.3665165,9.2429247 3.2771247,9.4943867 C 3.2771247,9.6434147 3.4112167,9.7039527 3.6794179,9.6760107 C 3.9028821,9.5921937 3.9922825,9.4152227 3.9476004,9.1451277 L 3.9476004,9.1451277 z M -3.6733348,8.4046777 C -3.7180348,8.2929187 -3.7999858,8.2463417 -3.9191678,8.2649677 C -3.9787768,8.2836017 -4.0085778,8.3581107 -4.0085678,8.4884957 C -3.9638768,8.5443797 -3.8819268,8.5676677 -3.7627348,8.5583517 C -3.6584448,8.5490427 -3.6286438,8.4978127 -3.6733348,8.4046777 L -3.6733348,8.4046777 z"
       style="font-size:144px;font-style:normal;font-weight:normal;fill:url(#radialGradient2559);fill-opacity:1;stroke:url(#radialGradient2561);stroke-width:0.47677401;stroke-linecap:butt;stroke-linejoin:miter;stroke-miterlimit:4;stroke-dasharray:none;stroke-opacity:1;font-family:Seaweed Fire AOE"
       id="path3681" />
  </g>
  <g
     inkscape:groupmode="layer"
     id="layer2"
     inkscape:label="rummut"
     style="display:inline" />
</svg>
